<svg xmlns="http://www.w3.org/2000/svg" xmlns:xlink="http://www.w3.org/1999/xlink" width="500" zoomAndPan="magnify" viewBox="0 0 375 374.999991" height="500" preserveAspectRatio="xMidYMid meet" version="1.0"><defs><g/><clipPath id="b2b5feab55"><path d="M 309.953125 200.996094 L 321.21875 200.996094 L 321.21875 212.261719 L 309.953125 212.261719 Z M 309.953125 200.996094 " clip-rule="nonzero"/></clipPath><clipPath id="7feec137f3"><path d="M 0.953125 0.996094 L 12.21875 0.996094 L 12.21875 12.261719 L 0.953125 12.261719 Z M 0.953125 0.996094 " clip-rule="nonzero"/></clipPath><clipPath id="59a06c1b81"><rect x="0" width="13" y="0" height="13"/></clipPath></defs><g fill="#ff751f" fill-opacity="1"><g transform="translate(53.780732, 210.749986)"><g><path d="M 37.109375 -0.402344 L 27.34375 -22.34375 L 28.628906 -22.917969 L 28.628906 -21.507812 L 12.546875 -21.507812 L 12.546875 -22.917969 L 13.957031 -22.917969 L 13.957031 -1.050781 C 13.957031 -0.3125 13.734375 0.28125 13.28125 0.734375 C 12.832031 1.183594 12.238281 1.410156 11.496094 1.410156 L 7.964844 1.410156 C 7.226562 1.410156 6.628906 1.183594 6.179688 0.734375 C 5.730469 0.28125 5.503906 -0.3125 5.503906 -1.050781 L 5.503906 -50.496094 C 5.503906 -51.234375 5.730469 -51.832031 6.179688 -52.28125 C 6.628906 -52.730469 7.226562 -52.957031 7.964844 -52.957031 L 34.566406 -52.957031 C 36.261719 -52.957031 37.867188 -52.628906 39.371094 -51.976562 C 40.863281 -51.328125 42.171875 -50.441406 43.300781 -49.3125 C 44.429688 -48.183594 45.316406 -46.875 45.964844 -45.382812 C 46.617188 -43.878906 46.945312 -42.273438 46.945312 -40.578125 L 46.945312 -33.890625 C 46.945312 -31.117188 46.109375 -28.640625 44.4375 -26.457031 C 42.773438 -24.285156 40.621094 -22.808594 37.972656 -22.019531 L 35.414062 -21.265625 L 35.015625 -22.617188 L 36.304688 -23.191406 L 45.921875 -1.550781 L 44.632812 -0.976562 L 45.84375 -1.703125 C 46.289062 -0.957031 46.296875 -0.242188 45.867188 0.445312 C 45.464844 1.089844 44.855469 1.410156 44.035156 1.410156 L 39.902344 1.410156 C 39.316406 1.410156 38.753906 1.230469 38.21875 0.871094 C 37.675781 0.507812 37.296875 0.0664062 37.089844 -0.453125 L 38.398438 -0.976562 Z M 39.683594 -1.550781 L 39.695312 -1.523438 L 39.707031 -1.5 C 39.695312 -1.527344 39.683594 -1.546875 39.675781 -1.554688 C 39.695312 -1.535156 39.730469 -1.507812 39.78125 -1.472656 C 39.84375 -1.429688 39.882812 -1.410156 39.902344 -1.410156 L 44.035156 -1.410156 C 43.972656 -1.410156 43.902344 -1.390625 43.820312 -1.351562 C 43.675781 -1.28125 43.5625 -1.179688 43.476562 -1.046875 C 43.382812 -0.894531 43.339844 -0.726562 43.351562 -0.542969 C 43.355469 -0.421875 43.382812 -0.324219 43.425781 -0.25 L 43.382812 -0.324219 L 33.074219 -23.515625 L 37.167969 -24.71875 C 39.230469 -25.335938 40.910156 -26.484375 42.203125 -28.171875 C 43.484375 -29.847656 44.128906 -31.753906 44.128906 -33.890625 L 44.128906 -40.578125 C 44.128906 -41.886719 43.878906 -43.113281 43.378906 -44.261719 C 42.875 -45.425781 42.183594 -46.445312 41.308594 -47.320312 C 40.433594 -48.195312 39.414062 -48.886719 38.25 -49.390625 C 37.101562 -49.890625 35.875 -50.140625 34.566406 -50.140625 L 7.964844 -50.140625 L 7.949219 -50.144531 C 8.027344 -50.171875 8.101562 -50.21875 8.171875 -50.289062 C 8.242188 -50.359375 8.289062 -50.429688 8.316406 -50.511719 L 8.320312 -50.496094 L 8.320312 -1.050781 L 8.316406 -1.039062 C 8.289062 -1.117188 8.242188 -1.191406 8.171875 -1.257812 C 8.101562 -1.328125 8.027344 -1.375 7.949219 -1.402344 L 7.964844 -1.410156 L 11.496094 -1.410156 L 11.511719 -1.402344 C 11.433594 -1.375 11.359375 -1.328125 11.289062 -1.257812 C 11.21875 -1.191406 11.171875 -1.117188 11.144531 -1.039062 L 11.140625 -1.050781 L 11.140625 -24.328125 L 29.542969 -24.328125 Z M 12.546875 -30.039062 L 34.566406 -30.039062 C 35.628906 -30.039062 36.535156 -30.414062 37.289062 -31.164062 C 38.039062 -31.917969 38.417969 -32.824219 38.417969 -33.890625 L 38.417969 -40.578125 C 38.417969 -41.640625 38.039062 -42.546875 37.289062 -43.300781 C 36.535156 -44.050781 35.628906 -44.429688 34.566406 -44.429688 L 12.546875 -44.429688 L 12.546875 -45.835938 L 13.957031 -45.835938 L 13.957031 -28.628906 L 12.546875 -28.628906 Z M 11.140625 -27.21875 L 11.140625 -47.246094 L 34.566406 -47.246094 C 36.40625 -47.246094 37.980469 -46.59375 39.28125 -45.292969 C 40.582031 -43.992188 41.234375 -42.417969 41.234375 -40.578125 L 41.234375 -33.890625 C 41.234375 -32.046875 40.582031 -30.476562 39.28125 -29.171875 C 37.980469 -27.871094 36.40625 -27.21875 34.566406 -27.21875 Z M 11.140625 -27.21875 "/></g></g></g><g fill="#ff751f" fill-opacity="1"><g transform="translate(106.153768, 210.749986)"><g><path d="M 33.214844 -52.957031 C 33.820312 -52.957031 34.382812 -52.765625 34.90625 -52.386719 C 35.402344 -52.027344 35.75 -51.597656 35.949219 -51.09375 L 46.394531 -24.945312 C 46.527344 -24.609375 46.640625 -24.195312 46.734375 -23.703125 C 46.824219 -23.21875 46.871094 -22.78125 46.871094 -22.390625 L 46.871094 -1.050781 C 46.871094 -0.3125 46.644531 0.28125 46.195312 0.734375 C 45.742188 1.183594 45.148438 1.410156 44.410156 1.410156 L 40.878906 1.410156 C 40.136719 1.410156 39.542969 1.183594 39.09375 0.734375 C 38.640625 0.28125 38.417969 -0.3125 38.417969 -1.050781 L 38.417969 -14.953125 L 39.824219 -14.953125 L 39.824219 -13.542969 L 12.546875 -13.542969 L 12.546875 -14.953125 L 13.957031 -14.953125 L 13.957031 -1.050781 C 13.957031 -0.3125 13.734375 0.28125 13.28125 0.734375 C 12.832031 1.183594 12.238281 1.410156 11.496094 1.410156 L 7.890625 1.410156 C 7.148438 1.410156 6.554688 1.183594 6.105469 0.734375 C 5.652344 0.28125 5.429688 -0.3125 5.429688 -1.050781 L 5.429688 -22.390625 C 5.429688 -22.78125 5.472656 -23.21875 5.566406 -23.703125 C 5.65625 -24.195312 5.769531 -24.609375 5.90625 -24.945312 L 16.351562 -51.09375 C 16.558594 -51.617188 16.933594 -52.058594 17.476562 -52.417969 C 18.015625 -52.777344 18.550781 -52.957031 19.085938 -52.957031 Z M 33.214844 -50.140625 L 19.085938 -50.140625 C 19.125 -50.140625 19.15625 -50.140625 19.171875 -50.148438 C 19.140625 -50.136719 19.097656 -50.113281 19.042969 -50.074219 C 18.992188 -50.042969 18.957031 -50.015625 18.9375 -49.992188 C 18.945312 -50 18.957031 -50.019531 18.96875 -50.046875 L 8.523438 -23.898438 C 8.457031 -23.734375 8.394531 -23.496094 8.335938 -23.183594 C 8.277344 -22.871094 8.246094 -22.605469 8.246094 -22.390625 L 8.246094 -1.050781 L 8.242188 -1.039062 C 8.214844 -1.117188 8.167969 -1.191406 8.097656 -1.257812 C 8.027344 -1.328125 7.953125 -1.375 7.875 -1.402344 L 7.890625 -1.410156 L 11.496094 -1.410156 L 11.511719 -1.402344 C 11.433594 -1.375 11.359375 -1.328125 11.289062 -1.257812 C 11.21875 -1.191406 11.171875 -1.117188 11.144531 -1.039062 L 11.140625 -1.050781 L 11.140625 -16.363281 L 41.234375 -16.363281 L 41.234375 -1.050781 L 41.226562 -1.039062 C 41.203125 -1.117188 41.152344 -1.191406 41.085938 -1.257812 C 41.015625 -1.328125 40.941406 -1.375 40.863281 -1.402344 L 40.878906 -1.410156 L 44.410156 -1.410156 L 44.425781 -1.402344 C 44.34375 -1.375 44.269531 -1.328125 44.203125 -1.257812 C 44.132812 -1.191406 44.085938 -1.117188 44.058594 -1.039062 L 44.050781 -1.050781 L 44.050781 -22.390625 C 44.050781 -22.605469 44.023438 -22.871094 43.964844 -23.183594 C 43.90625 -23.496094 43.84375 -23.734375 43.777344 -23.898438 L 33.332031 -50.046875 C 33.335938 -50.035156 33.339844 -50.027344 33.34375 -50.027344 C 33.324219 -50.050781 33.292969 -50.074219 33.25 -50.109375 C 33.222656 -50.125 33.203125 -50.136719 33.191406 -50.140625 C 33.199219 -50.140625 33.203125 -50.140625 33.214844 -50.140625 Z M 38.417969 -20.589844 L 38.417969 -22.390625 L 39.824219 -22.390625 L 38.519531 -21.867188 L 29.125 -45.3125 L 30.433594 -45.835938 L 30.433594 -44.429688 L 21.941406 -44.429688 L 21.941406 -45.835938 L 23.25 -45.3125 L 13.855469 -21.867188 L 12.546875 -22.390625 L 13.957031 -22.390625 L 13.957031 -20.589844 L 12.546875 -20.589844 L 12.546875 -21.996094 L 39.824219 -21.996094 L 39.824219 -20.589844 Z M 41.234375 -19.179688 L 11.140625 -19.179688 L 11.140625 -22.664062 L 20.988281 -47.246094 L 31.386719 -47.246094 L 41.234375 -22.664062 Z M 41.234375 -19.179688 "/></g></g></g><g fill="#ff751f" fill-opacity="1"><g transform="translate(158.526804, 210.749986)"><g><path d="M 9.917969 -52.957031 L 13.527344 -52.957031 C 14.265625 -52.957031 14.859375 -52.730469 15.3125 -52.28125 C 15.761719 -51.832031 15.988281 -51.234375 15.988281 -50.496094 L 15.988281 -5.710938 L 14.578125 -5.710938 L 14.578125 -7.121094 L 43.957031 -7.121094 C 44.679688 -7.121094 45.28125 -6.847656 45.761719 -6.308594 C 46.199219 -5.816406 46.417969 -5.265625 46.417969 -4.660156 L 46.417969 -1.050781 C 46.417969 -0.3125 46.195312 0.28125 45.742188 0.734375 C 45.292969 1.183594 44.699219 1.410156 43.957031 1.410156 L 9.917969 1.410156 C 9.3125 1.410156 8.761719 1.191406 8.269531 0.753906 C 7.726562 0.273438 7.457031 -0.328125 7.457031 -1.050781 L 7.457031 -50.496094 C 7.457031 -51.21875 7.726562 -51.820312 8.269531 -52.300781 C 8.761719 -52.738281 9.3125 -52.957031 9.917969 -52.957031 Z M 9.917969 -50.140625 C 10.027344 -50.140625 10.097656 -50.15625 10.140625 -50.195312 C 10.230469 -50.273438 10.277344 -50.375 10.277344 -50.496094 L 10.277344 -1.050781 C 10.277344 -1.171875 10.230469 -1.273438 10.140625 -1.355469 C 10.097656 -1.390625 10.027344 -1.410156 9.917969 -1.410156 L 43.957031 -1.410156 L 43.972656 -1.402344 C 43.894531 -1.375 43.820312 -1.328125 43.75 -1.257812 C 43.683594 -1.191406 43.632812 -1.117188 43.609375 -1.039062 L 43.601562 -1.050781 L 43.601562 -4.660156 C 43.601562 -4.550781 43.621094 -4.476562 43.65625 -4.4375 C 43.738281 -4.347656 43.835938 -4.300781 43.957031 -4.300781 L 13.167969 -4.300781 L 13.167969 -50.496094 L 13.175781 -50.511719 C 13.203125 -50.429688 13.25 -50.359375 13.316406 -50.289062 C 13.386719 -50.21875 13.460938 -50.171875 13.539062 -50.144531 L 13.527344 -50.140625 Z M 9.917969 -50.140625 "/></g></g></g><g fill="#ff751f" fill-opacity="1"><g transform="translate(210.89984, 210.749986)"><g><path d="M 9.917969 -52.957031 L 13.527344 -52.957031 C 14.265625 -52.957031 14.859375 -52.730469 15.3125 -52.28125 C 15.761719 -51.832031 15.988281 -51.234375 15.988281 -50.496094 L 15.988281 -5.710938 L 14.578125 -5.710938 L 14.578125 -7.121094 L 43.957031 -7.121094 C 44.679688 -7.121094 45.28125 -6.847656 45.761719 -6.308594 C 46.199219 -5.816406 46.417969 -5.265625 46.417969 -4.660156 L 46.417969 -1.050781 C 46.417969 -0.3125 46.195312 0.28125 45.742188 0.734375 C 45.292969 1.183594 44.699219 1.410156 43.957031 1.410156 L 9.917969 1.410156 C 9.3125 1.410156 8.761719 1.191406 8.269531 0.753906 C 7.726562 0.273438 7.457031 -0.328125 7.457031 -1.050781 L 7.457031 -50.496094 C 7.457031 -51.21875 7.726562 -51.820312 8.269531 -52.300781 C 8.761719 -52.738281 9.3125 -52.957031 9.917969 -52.957031 Z M 9.917969 -50.140625 C 10.027344 -50.140625 10.097656 -50.15625 10.140625 -50.195312 C 10.230469 -50.273438 10.277344 -50.375 10.277344 -50.496094 L 10.277344 -1.050781 C 10.277344 -1.171875 10.230469 -1.273438 10.140625 -1.355469 C 10.097656 -1.390625 10.027344 -1.410156 9.917969 -1.410156 L 43.957031 -1.410156 L 43.972656 -1.402344 C 43.894531 -1.375 43.820312 -1.328125 43.75 -1.257812 C 43.683594 -1.191406 43.632812 -1.117188 43.609375 -1.039062 L 43.601562 -1.050781 L 43.601562 -4.660156 C 43.601562 -4.550781 43.621094 -4.476562 43.65625 -4.4375 C 43.738281 -4.347656 43.835938 -4.300781 43.957031 -4.300781 L 13.167969 -4.300781 L 13.167969 -50.496094 L 13.175781 -50.511719 C 13.203125 -50.429688 13.25 -50.359375 13.316406 -50.289062 C 13.386719 -50.21875 13.460938 -50.171875 13.539062 -50.144531 L 13.527344 -50.140625 Z M 9.917969 -50.140625 "/></g></g></g><g fill="#ff751f" fill-opacity="1"><g transform="translate(263.272875, 210.749986)"><g><path d="M 6.488281 -35.941406 C 6.21875 -36.28125 5.980469 -36.664062 5.785156 -37.09375 C 5.546875 -37.605469 5.429688 -38.117188 5.429688 -38.625 L 5.429688 -50.496094 C 5.429688 -51.136719 5.679688 -51.707031 6.179688 -52.207031 C 6.679688 -52.707031 7.25 -52.957031 7.890625 -52.957031 L 11.496094 -52.957031 C 12.21875 -52.957031 12.820312 -52.6875 13.300781 -52.144531 C 13.738281 -51.652344 13.957031 -51.101562 13.957031 -50.496094 L 13.957031 -40.878906 C 13.957031 -40.820312 13.996094 -40.703125 14.070312 -40.53125 C 14.167969 -40.296875 14.28125 -40.105469 14.402344 -39.953125 L 13.300781 -39.074219 L 14.285156 -40.082031 L 27.210938 -27.457031 L 26.226562 -26.449219 L 25.238281 -27.457031 L 38.085938 -40.078125 C 38.183594 -40.175781 38.257812 -40.296875 38.3125 -40.449219 C 38.382812 -40.648438 38.417969 -40.789062 38.417969 -40.878906 L 38.417969 -50.496094 C 38.417969 -51.101562 38.636719 -51.652344 39.074219 -52.144531 C 39.554688 -52.6875 40.15625 -52.957031 40.878906 -52.957031 L 44.484375 -52.957031 C 45.207031 -52.957031 45.808594 -52.6875 46.289062 -52.144531 C 46.726562 -51.652344 46.945312 -51.101562 46.945312 -50.496094 L 46.945312 -38.625 C 46.945312 -38.117188 46.828125 -37.605469 46.589844 -37.09375 C 46.390625 -36.664062 46.15625 -36.28125 45.886719 -35.941406 L 45.835938 -35.878906 L 30.074219 -20.191406 L 29.082031 -21.191406 L 30.488281 -21.191406 L 30.488281 -1.050781 C 30.488281 -0.328125 30.21875 0.273438 29.679688 0.753906 C 29.1875 1.191406 28.636719 1.410156 28.027344 1.410156 L 24.421875 1.410156 C 23.679688 1.410156 23.085938 1.183594 22.636719 0.734375 C 22.1875 0.28125 21.960938 -0.3125 21.960938 -1.050781 L 21.960938 -21.191406 L 23.371094 -21.191406 L 22.378906 -20.1875 L 6.539062 -35.875 Z M 8.691406 -37.699219 L 7.589844 -36.820312 L 8.582031 -37.820312 L 24.777344 -21.777344 L 24.777344 -1.050781 L 24.773438 -1.039062 C 24.746094 -1.117188 24.699219 -1.191406 24.628906 -1.257812 C 24.558594 -1.328125 24.484375 -1.375 24.40625 -1.402344 L 24.421875 -1.410156 L 28.027344 -1.410156 C 27.921875 -1.410156 27.847656 -1.390625 27.804688 -1.355469 C 27.714844 -1.273438 27.671875 -1.171875 27.671875 -1.050781 L 27.671875 -21.777344 L 43.792969 -37.820312 L 44.785156 -36.820312 L 43.683594 -37.699219 C 43.8125 -37.859375 43.929688 -38.050781 44.03125 -38.273438 C 44.09375 -38.414062 44.128906 -38.527344 44.128906 -38.625 L 44.128906 -50.496094 C 44.128906 -50.390625 44.144531 -50.316406 44.183594 -50.273438 C 44.261719 -50.183594 44.363281 -50.140625 44.484375 -50.140625 L 40.878906 -50.140625 C 41 -50.140625 41.097656 -50.183594 41.179688 -50.273438 C 41.214844 -50.316406 41.234375 -50.390625 41.234375 -50.496094 L 41.234375 -40.878906 C 41.234375 -40.464844 41.144531 -40.003906 40.964844 -39.5 C 40.769531 -38.953125 40.46875 -38.476562 40.0625 -38.070312 L 26.226562 -24.476562 L 12.253906 -38.125 L 12.199219 -38.195312 C 11.921875 -38.542969 11.679688 -38.953125 11.480469 -39.421875 C 11.253906 -39.949219 11.140625 -40.433594 11.140625 -40.878906 L 11.140625 -50.496094 C 11.140625 -50.390625 11.160156 -50.316406 11.195312 -50.273438 C 11.273438 -50.183594 11.375 -50.140625 11.496094 -50.140625 L 7.890625 -50.140625 C 8.027344 -50.140625 8.121094 -50.164062 8.171875 -50.214844 C 8.222656 -50.261719 8.246094 -50.355469 8.246094 -50.496094 L 8.246094 -38.625 C 8.246094 -38.527344 8.277344 -38.414062 8.34375 -38.273438 C 8.445312 -38.050781 8.5625 -37.859375 8.691406 -37.699219 Z M 8.691406 -37.699219 "/></g></g></g><g clip-path="url(#b2b5feab55)"><g transform="matrix(1, 0, 0, 1, 309, 200)"><g clip-path="url(#59a06c1b81)"><g clip-path="url(#7feec137f3)"><path fill="#ff751f" d="M 0.953125 0.996094 L 12.21875 0.996094 L 12.21875 12.261719 L 0.953125 12.261719 Z M 0.953125 0.996094 " fill-opacity="1" fill-rule="nonzero"/></g></g></g></g></svg>