<svg xmlns="http://www.w3.org/2000/svg" xmlns:xlink="http://www.w3.org/1999/xlink" width="500" zoomAndPan="magnify" viewBox="0 0 375 374.999991" height="500" preserveAspectRatio="xMidYMid meet" version="1.0"><defs><g/><clipPath id="ed7b810d4e"><path d="M 309.953125 200.996094 L 321.21875 200.996094 L 321.21875 212.261719 L 309.953125 212.261719 Z M 309.953125 200.996094 " clip-rule="nonzero"/></clipPath><clipPath id="9e70469514"><path d="M 0.953125 0.996094 L 12.21875 0.996094 L 12.21875 12.261719 L 0.953125 12.261719 Z M 0.953125 0.996094 " clip-rule="nonzero"/></clipPath><clipPath id="60631ec0dc"><rect x="0" width="13" y="0" height="13"/></clipPath></defs><g fill="#000000" fill-opacity="1"><g transform="translate(53.780732, 210.749986)"><g><path d="M 38.390625 -0.984375 L 28.625 -22.921875 L 12.546875 -22.921875 L 12.546875 -1.046875 C 12.546875 -0.347656 12.195312 0 11.5 0 L 7.96875 0 C 7.257812 0 6.90625 -0.347656 6.90625 -1.046875 L 6.90625 -50.5 C 6.90625 -51.195312 7.257812 -51.546875 7.96875 -51.546875 L 34.5625 -51.546875 C 36.0625 -51.546875 37.472656 -51.253906 38.796875 -50.671875 C 40.128906 -50.097656 41.296875 -49.3125 42.296875 -48.3125 C 43.304688 -47.3125 44.097656 -46.144531 44.671875 -44.8125 C 45.242188 -43.488281 45.53125 -42.078125 45.53125 -40.578125 L 45.53125 -33.890625 C 45.53125 -31.429688 44.789062 -29.238281 43.3125 -27.3125 C 41.84375 -25.382812 39.929688 -24.070312 37.578125 -23.375 L 35.015625 -22.625 L 44.640625 -0.984375 C 44.785156 -0.722656 44.796875 -0.492188 44.671875 -0.296875 C 44.546875 -0.0976562 44.332031 0 44.03125 0 L 39.90625 0 C 39.601562 0 39.300781 -0.0976562 39 -0.296875 C 38.695312 -0.492188 38.492188 -0.722656 38.390625 -0.984375 Z M 12.546875 -28.625 L 34.5625 -28.625 C 36.019531 -28.625 37.257812 -29.132812 38.28125 -30.15625 C 39.3125 -31.1875 39.828125 -32.429688 39.828125 -33.890625 L 39.828125 -40.578125 C 39.828125 -42.023438 39.3125 -43.257812 38.28125 -44.28125 C 37.257812 -45.3125 36.019531 -45.828125 34.5625 -45.828125 L 12.546875 -45.828125 Z M 12.546875 -28.625 "/></g></g></g><g fill="#000000" fill-opacity="1"><g transform="translate(106.153768, 210.749986)"><g><path d="M 33.21875 -51.546875 C 33.507812 -51.546875 33.789062 -51.445312 34.0625 -51.25 C 34.34375 -51.050781 34.535156 -50.820312 34.640625 -50.5625 L 45.078125 -24.421875 C 45.179688 -24.171875 45.269531 -23.84375 45.34375 -23.4375 C 45.414062 -23.039062 45.453125 -22.691406 45.453125 -22.390625 L 45.453125 -1.046875 C 45.453125 -0.347656 45.101562 0 44.40625 0 L 40.875 0 C 40.175781 0 39.828125 -0.347656 39.828125 -1.046875 L 39.828125 -14.953125 L 12.546875 -14.953125 L 12.546875 -1.046875 C 12.546875 -0.347656 12.195312 0 11.5 0 L 7.890625 0 C 7.191406 0 6.84375 -0.347656 6.84375 -1.046875 L 6.84375 -22.390625 C 6.84375 -22.691406 6.878906 -23.039062 6.953125 -23.4375 C 7.023438 -23.84375 7.113281 -24.171875 7.21875 -24.421875 L 17.65625 -50.5625 C 17.757812 -50.820312 17.957031 -51.050781 18.25 -51.25 C 18.550781 -51.445312 18.828125 -51.546875 19.078125 -51.546875 Z M 39.828125 -20.59375 L 39.828125 -22.390625 L 30.4375 -45.828125 L 21.9375 -45.828125 L 12.546875 -22.390625 L 12.546875 -20.59375 Z M 39.828125 -20.59375 "/></g></g></g><g fill="#000000" fill-opacity="1"><g transform="translate(158.526804, 210.749986)"><g><path d="M 9.921875 -51.546875 L 13.53125 -51.546875 C 14.226562 -51.546875 14.578125 -51.195312 14.578125 -50.5 L 14.578125 -5.703125 L 43.953125 -5.703125 C 44.253906 -5.703125 44.503906 -5.585938 44.703125 -5.359375 C 44.910156 -5.140625 45.015625 -4.90625 45.015625 -4.65625 L 45.015625 -1.046875 C 45.015625 -0.347656 44.660156 0 43.953125 0 L 9.921875 0 C 9.671875 0 9.429688 -0.0976562 9.203125 -0.296875 C 8.972656 -0.492188 8.859375 -0.742188 8.859375 -1.046875 L 8.859375 -50.5 C 8.859375 -50.800781 8.972656 -51.050781 9.203125 -51.25 C 9.429688 -51.445312 9.671875 -51.546875 9.921875 -51.546875 Z M 9.921875 -51.546875 "/></g></g></g><g fill="#000000" fill-opacity="1"><g transform="translate(210.89984, 210.749986)"><g><path d="M 9.921875 -51.546875 L 13.53125 -51.546875 C 14.226562 -51.546875 14.578125 -51.195312 14.578125 -50.5 L 14.578125 -5.703125 L 43.953125 -5.703125 C 44.253906 -5.703125 44.503906 -5.585938 44.703125 -5.359375 C 44.910156 -5.140625 45.015625 -4.90625 45.015625 -4.65625 L 45.015625 -1.046875 C 45.015625 -0.347656 44.660156 0 43.953125 0 L 9.921875 0 C 9.671875 0 9.429688 -0.0976562 9.203125 -0.296875 C 8.972656 -0.492188 8.859375 -0.742188 8.859375 -1.046875 L 8.859375 -50.5 C 8.859375 -50.800781 8.972656 -51.050781 9.203125 -51.25 C 9.429688 -51.445312 9.671875 -51.546875 9.921875 -51.546875 Z M 9.921875 -51.546875 "/></g></g></g><g fill="#000000" fill-opacity="1"><g transform="translate(263.272875, 210.749986)"><g><path d="M 7.59375 -36.8125 C 7.382812 -37.0625 7.207031 -37.347656 7.0625 -37.671875 C 6.914062 -38.003906 6.84375 -38.320312 6.84375 -38.625 L 6.84375 -50.5 C 6.84375 -50.75 6.953125 -50.984375 7.171875 -51.203125 C 7.398438 -51.429688 7.640625 -51.546875 7.890625 -51.546875 L 11.5 -51.546875 C 11.800781 -51.546875 12.050781 -51.429688 12.25 -51.203125 C 12.445312 -50.984375 12.546875 -50.75 12.546875 -50.5 L 12.546875 -40.875 C 12.546875 -40.625 12.617188 -40.320312 12.765625 -39.96875 C 12.921875 -39.625 13.097656 -39.328125 13.296875 -39.078125 L 26.21875 -26.453125 L 39.078125 -39.078125 C 39.328125 -39.328125 39.515625 -39.625 39.640625 -39.96875 C 39.765625 -40.320312 39.828125 -40.625 39.828125 -40.875 L 39.828125 -50.5 C 39.828125 -50.75 39.925781 -50.984375 40.125 -51.203125 C 40.320312 -51.429688 40.570312 -51.546875 40.875 -51.546875 L 44.484375 -51.546875 C 44.785156 -51.546875 45.035156 -51.429688 45.234375 -51.203125 C 45.429688 -50.984375 45.53125 -50.75 45.53125 -50.5 L 45.53125 -38.625 C 45.53125 -38.320312 45.453125 -38.003906 45.296875 -37.671875 C 45.148438 -37.347656 44.976562 -37.0625 44.78125 -36.8125 L 29.078125 -21.1875 L 29.078125 -1.046875 C 29.078125 -0.742188 28.960938 -0.492188 28.734375 -0.296875 C 28.515625 -0.0976562 28.28125 0 28.03125 0 L 24.421875 0 C 23.722656 0 23.375 -0.347656 23.375 -1.046875 L 23.375 -21.1875 Z M 7.59375 -36.8125 "/></g></g></g><g clip-path="url(#ed7b810d4e)"><g transform="matrix(1, 0, 0, 1, 309, 200)"><g clip-path="url(#60631ec0dc)"><g clip-path="url(#9e70469514)"><path fill="#ff751f" d="M 0.953125 0.996094 L 12.21875 0.996094 L 12.21875 12.261719 L 0.953125 12.261719 Z M 0.953125 0.996094 " fill-opacity="1" fill-rule="nonzero"/></g></g></g></g></svg>